<mxfile host="app.diagrams.net" modified="2022-06-22T03:04:00.708Z" agent="5.0 (Macintosh; Intel Mac OS X 11_2_3) AppleWebKit/537.36 (KHTML, like Gecko) Chrome/89.0.4389.82 Safari/537.36" etag="BMtlybwotyiZAGGdF6l7" version="16.6.4" type="github">
  <diagram id="t3h843yoLkfb4mnD7kg4" name="第 1 页">
    <mxGraphModel dx="873" dy="621" grid="1" gridSize="10" guides="1" tooltips="1" connect="1" arrows="1" fold="1" page="1" pageScale="1" pageWidth="827" pageHeight="1169" math="0" shadow="0">
      <root>
        <mxCell id="0" />
        <mxCell id="1" parent="0" />
      </root>
    </mxGraphModel>
  </diagram>
</mxfile>
